<svg viewBox="0 0 500 500" xmlns="http://www.w3.org/2000/svg">
  <path d="M439.3,257.5c-4.9-20.7-14.7-39.7-28.5-55.8c-1.3-1.6-3.8-1.5-5.1,0.2l-33.8,42.7c-1.3,1.6-0.6,4,1.4,4.6l54.8,17.2 c2.1,0.7,4.3-0.7,4.5-2.9l4.5-57.2c0.2-2.1-1.6-3.9-3.7-3.9l-1.3,0l-28.6,36.2C371.3,184.9,332.6,161,288.9,161 c-39.7,0-75.3,19.3-97.6,49.4l34.8,27.5c2.4,1.9,5.7,1.8,7.9-0.3l37.7-36.8c1.7-1.6,1.4-4.3-0.6-5.6l-55.9-36.7 c-2.1-1.4-4.8-0.6-5.8,1.7l-22.3,56.7c-0.8,2,0.6,4.2,2.8,4.4l57.2,5.2c2.2,0.2,4.1-1.5,4.1-3.7l0-1.3l-28.8-22.8 c17.6-23.7,45.7-38.9,77.3-38.9c32.7,0,61.4,16.5,78.5,41.7L439.3,257.5z M250,339c43.7,0,82.4-23.9,103.2-60.5l-34.8-27.5c-2.4-1.9-5.7-1.8-7.9,0.3l-37.7,36.8c-1.7,1.6-1.4,4.3,0.6,5.6l55.9,36.7 c2.1,1.4,4.8,0.6,5.8-1.7l22.3-56.7c0.8-2-0.6-4.2-2.8-4.4l-57.2-5.2c-2.2-0.2-4.1,1.5-4.1,3.7l0,1.3l28.8,22.8 c-17.6,23.7-45.7,38.9-77.3,38.9c-32.7,0-61.4-16.5-78.5-41.7l-45.3,28.2c4.9,20.7,14.7,39.7,28.5,55.8c1.3,1.6,3.8,1.5,5.1-0.2 l33.8-42.7c1.3-1.6,0.6-4-1.4-4.6l-54.8-17.2c-2.1-0.7-4.3,0.7-4.5,2.9l-4.5,57.2c-0.2,2.1,1.6,3.9,3.7,3.9l1.3,0l28.6-36.2 C206.6,361.6,245.3,385.5,289,385.5c39.7,0,75.3-19.3,97.6-49.4l-34.8-27.5c-2.4-1.9-5.7-1.8-7.9,0.3l-37.7,36.8c-1.7,1.6-1.4,4.3,0.6,5.6l55.9,36.7c2.1,1.4,4.8,0.6,5.8-1.7l22.3-56.7c0.8-2-0.6-4.2-2.8-4.4l-57.2-5.2c-2.2-0.2-4.1,1.5-4.1,3.7L250,339z" fill="#4CAF50"/>
</svg>
